<?xml version="1.0" encoding="UTF-8" standalone="no"?><!DOCTYPE svg PUBLIC "-//W3C//DTD SVG 1.1//EN" "http://www.w3.org/Graphics/SVG/1.1/DTD/svg11.dtd"><svg width="100%" height="100%" viewBox="0 0 77 77" version="1.1" xmlns="http://www.w3.org/2000/svg" xmlns:xlink="http://www.w3.org/1999/xlink" xml:space="preserve" xmlns:serif="http://www.serif.com/" style="fill-rule:evenodd;clip-rule:evenodd;stroke-linecap:round;stroke-linejoin:round;stroke-miterlimit:1.5;"><g id="Uhr"><circle cx="29.538" cy="47.597" r="26.69" style="fill:#ebebeb;stroke:#000;stroke-width:0.4px;"/><path d="M29.338,20.908l0,4.27c0,0.11 0.09,0.2 0.2,0.2c0.111,0 0.2,-0.09 0.2,-0.2l0,-4.27c0,-0.111 -0.089,-0.2 -0.2,-0.2c-0.11,0 -0.2,0.089 -0.2,0.2Z"/><path d="M56.229,47.926l-4.27,-0.026c-0.111,-0.001 -0.201,0.088 -0.201,0.198c-0.001,0.111 0.088,0.201 0.198,0.202l4.271,0.026c0.11,0.001 0.2,-0.088 0.201,-0.198c0.001,-0.111 -0.088,-0.201 -0.199,-0.202Z"/><path d="M29.738,74.287l0,-4.3c0,-0.111 -0.089,-0.2 -0.2,-0.2c-0.11,0 -0.2,0.089 -0.2,0.2l0,4.3c0,0.11 0.09,0.2 0.2,0.2c0.111,0 0.2,-0.09 0.2,-0.2Z"/><path d="M2.849,47.797l4.308,0c0.111,0 0.2,-0.089 0.2,-0.2c0,-0.11 -0.089,-0.2 -0.2,-0.2l-4.308,0c-0.111,0 -0.2,0.09 -0.2,0.2c0,0.111 0.089,0.2 0.2,0.2Z"/><path id="Zeiger" d="M29.873,48.045c-0.127,0.089 -0.284,0.124 -0.437,0.097c-0.153,-0.028 -0.288,-0.115 -0.376,-0.243c0,0 0,0 0,0c-0.088,-0.127 -0.122,-0.285 -0.093,-0.437c0.028,-0.153 0.117,-0.287 0.245,-0.375c1.772,-1.2 7.857,-5.331 9.151,-6.326c0.076,-0.058 -0.612,-0.299 -0.527,-0.35c0.175,-0.105 1.633,-0.175 1.855,0.147c0.223,0.322 -0.356,1.666 -0.52,1.786c-0.08,0.059 -0.059,-0.667 -0.14,-0.616c-1.389,0.857 -7.407,5.085 -9.158,6.317Z"/><ellipse id="Mitte" cx="29.538" cy="47.597" rx="0.582" ry="0.553"/><path id="Zeiger1" serif:id="Zeiger" d="M29.841,47.018c0.132,0.081 0.227,0.212 0.263,0.363c0.036,0.151 0.01,0.31 -0.072,0.442c0,0 0,0 0,0.001c-0.082,0.132 -0.214,0.225 -0.365,0.26c-0.151,0.035 -0.31,0.009 -0.442,-0.074c-2.46,-1.547 -13.314,-8.364 -15.702,-9.744c-0.135,-0.078 0.149,0.791 0.015,0.7c-0.274,-0.185 -1.583,-1.904 -1.376,-2.237c0.206,-0.332 2.331,0.072 2.615,0.241c0.139,0.083 -0.764,0.211 -0.634,0.298c2.296,1.528 13.221,8.231 15.698,9.75Z"/></g><g id="Check"><circle cx="49.081" cy="17.663" r="14.732" style="fill:#ebebeb;stroke:#000;stroke-width:0.45px;"/><path d="M48.239,25.156c1.527,-3.001 6.508,-12.799 7.7,-15.237c0.181,-0.372 0.631,-0.526 1.003,-0.344c0.372,0.182 0.526,0.631 0.344,1.003c-1.415,2.893 -8.157,16.137 -8.157,16.137c-0.107,0.208 -0.304,0.355 -0.534,0.397c-0.23,0.042 -0.467,-0.025 -0.64,-0.183c0,0 -5.277,-4.809 -7.468,-7.015c-0.291,-0.294 -0.29,-0.769 0.004,-1.06c0.294,-0.292 0.769,-0.29 1.061,0.003c1.675,1.688 5.172,4.91 6.687,6.299Z" style="fill:#5d7;"/></g><g id="Cross"><circle cx="58.824" cy="61.934" r="12.353" style="fill:#ebebeb;stroke:#000;stroke-width:0.45px;"/><path d="M57.728,62.014l-5.366,-5.503c-0.289,-0.297 -0.283,-0.772 0.014,-1.061c0.296,-0.289 0.771,-0.283 1.06,0.014l5.349,5.485l5.403,-5.442l1.064,1.056l-5.419,5.46l5.413,5.551l-1.074,1.047c0,0 -5.396,-5.533 -5.396,-5.533l-5.47,5.51c-0.291,0.294 -0.766,0.296 -1.06,0.004c-0.294,-0.292 -0.296,-0.767 -0.004,-1.061l5.486,-5.527Z" style="fill:#d75;"/></g></svg>